<?xml version="1.0" standalone="no"?>
<!DOCTYPE svg PUBLIC "-//W3C//DTD SVG 20010904//EN"
 "http://www.w3.org/TR/2001/REC-SVG-20010904/DTD/svg10.dtd">
<svg version="1.0" xmlns="http://www.w3.org/2000/svg"
 width="1042.000000pt" height="1042.000000pt" viewBox="0 0 1042.000000 1042.000000"
 preserveAspectRatio="xMidYMid meet">

<g transform="translate(0.000000,1042.000000) scale(0.100000,-0.100000)"
fill="#000000" stroke="none">
<path d="M5063 8698 c-5 -7 -17 -48 -27 -91 -10 -44 -22 -75 -26 -70 -4 4 -20
43 -35 86 l-28 77 -36 -6 c-20 -4 -38 -8 -40 -11 -3 -2 -7 -69 -9 -150 l-5
-146 24 6 c13 4 27 7 31 7 4 0 9 44 10 98 l3 97 31 -80 c27 -69 35 -80 58 -83
15 -2 28 2 31 10 2 7 14 47 26 88 23 74 23 75 30 40 4 -19 11 -63 15 -97 6
-61 7 -63 35 -63 35 0 35 5 14 140 -27 175 -22 160 -59 160 -19 0 -38 -6 -43
-12z"/>
<path d="M5303 8681 c-35 -22 -51 -68 -34 -99 6 -11 34 -34 62 -51 34 -22 49
-37 47 -49 -5 -25 -44 -27 -83 -4 -29 18 -34 18 -39 5 -20 -52 5 -73 89 -73
46 0 60 4 81 25 20 20 25 34 22 63 -3 32 -10 41 -58 74 -64 43 -71 64 -20 62
19 -1 44 -3 54 -5 14 -3 21 4 27 24 6 24 4 29 -17 38 -40 15 -96 10 -131 -10z"/>
<path d="M5641 8648 c-11 -29 -6 -38 22 -38 44 0 45 -9 22 -128 -15 -78 -19
-115 -11 -117 52 -15 55 -14 62 24 3 20 14 72 23 116 l16 80 36 -3 c32 -3 37
0 41 22 4 21 1 27 -16 31 -45 9 -178 35 -182 35 -3 0 -8 -10 -13 -22z"/>
<path d="M4619 8641 c-69 -22 -99 -61 -99 -128 0 -103 47 -163 129 -163 85 0
141 54 141 138 0 109 -81 182 -171 153z m58 -59 c19 -12 43 -77 43 -115 0 -42
-15 -57 -57 -57 -41 0 -64 32 -71 99 -4 42 -1 50 19 65 25 17 47 20 66 8z"/>
<path d="M4317 8560 c-49 -16 -91 -30 -93 -33 -3 -3 -2 -16 1 -30 6 -23 10
-25 32 -16 46 17 51 12 83 -86 16 -52 30 -102 30 -111 0 -13 6 -15 28 -9 15 3
30 10 35 14 4 4 -8 56 -28 116 -19 60 -34 109 -32 110 1 1 14 6 30 11 15 5 27
12 27 17 0 4 0 16 0 27 0 25 -5 25 -113 -10z"/>
<path d="M5950 8563 c-66 -34 -102 -133 -73 -204 27 -70 124 -100 190 -59 62
37 97 152 65 212 -30 55 -123 81 -182 51z m104 -58 c15 -11 18 -23 14 -62 -6
-64 -32 -103 -68 -103 -57 0 -76 53 -45 127 9 21 21 41 28 45 19 12 50 9 71
-7z"/>
<path d="M4023 8449 l-71 -31 18 -42 c10 -22 37 -81 58 -131 35 -79 43 -90 63
-87 38 4 44 18 25 58 -9 20 -16 38 -14 39 2 1 18 10 35 19 78 39 83 160 8 194
-35 16 -40 16 -122 -19z m91 -51 c22 -31 20 -64 -6 -82 -27 -19 -31 -16 -53
40 -15 39 -15 48 -4 55 24 15 47 10 63 -13z"/>
<path d="M6364 8420 c-26 -10 -54 -48 -54 -71 0 -9 16 -40 36 -69 54 -79 24
-112 -42 -46 l-34 34 -20 -28 -19 -27 22 -21 c58 -54 150 -64 182 -19 24 34
18 69 -20 122 -26 37 -32 52 -23 62 15 19 23 17 60 -16 l33 -29 18 25 c15 20
16 27 6 39 -29 35 -109 59 -145 44z"/>
<path d="M3792 8338 c-21 -13 -31 -26 -28 -35 13 -33 36 -146 31 -151 -3 -3
-32 21 -65 53 l-59 59 -36 -19 c-19 -11 -35 -22 -35 -26 0 -3 28 -65 63 -136
59 -124 63 -130 85 -120 12 5 22 14 22 19 0 5 -18 44 -40 88 -22 44 -37 80
-34 80 3 0 32 -22 64 -50 63 -54 68 -56 93 -37 16 11 17 17 1 90 -9 43 -14 81
-11 83 2 2 27 -29 56 -70 49 -72 53 -75 77 -64 15 7 23 17 19 26 -7 19 -159
231 -165 231 -3 1 -20 -9 -38 -21z"/>
<path d="M6605 8288 c-60 -33 -105 -103 -105 -164 0 -48 58 -109 115 -120 110
-20 221 145 154 230 -24 30 -91 66 -124 65 -11 0 -29 -5 -40 -11z m93 -64 c37
-26 27 -80 -26 -136 -29 -32 -48 -35 -80 -12 -37 26 -27 80 26 137 29 31 48
34 80 11z"/>
<path d="M3479 8132 c-22 -19 -22 -19 -6 -85 10 -36 17 -69 17 -72 0 -3 -29
10 -64 30 l-63 35 -27 -21 -27 -22 93 -49 c57 -30 106 -64 126 -88 33 -38 35
-39 58 -23 31 20 30 28 -4 67 -22 26 -32 52 -47 135 -10 56 -22 104 -26 106
-4 3 -17 -3 -30 -13z"/>
<path d="M6825 8025 c-48 -64 -86 -117 -84 -119 2 -1 32 -23 65 -49 61 -46 62
-46 80 -26 18 20 18 21 -21 53 l-39 33 74 93 74 93 -23 18 c-13 11 -27 19 -31
19 -4 0 -47 -52 -95 -115z"/>
<path d="M7033 7899 c-91 -98 -98 -119 -63 -177 23 -37 75 -72 108 -72 39 0
74 25 145 103 l67 76 -28 20 -28 20 -58 -65 c-32 -36 -69 -72 -82 -81 -22 -14
-26 -14 -49 1 -43 28 -33 58 47 141 l72 76 -25 24 -24 24 -82 -90z"/>
<path d="M3203 7896 c-40 -41 -44 -48 -41 -87 2 -32 9 -47 30 -62 27 -20 28
-20 87 -2 59 18 81 15 81 -10 0 -18 -48 -55 -71 -55 -24 0 -24 -12 -1 -40 24
-29 50 -21 96 30 27 30 36 49 36 76 0 75 -43 98 -131 69 -38 -13 -54 -14 -62
-6 -19 19 13 55 67 74 11 4 -23 57 -36 57 -6 0 -31 -20 -55 -44z"/>
<path d="M7316 7735 c-19 -15 -19 -15 2 -38 12 -13 22 -28 22 -34 0 -7 -131
-124 -169 -150 -6 -4 28 -53 37 -53 4 0 47 34 96 75 l88 74 22 -26 c19 -22 25
-24 44 -14 12 6 22 15 22 19 0 10 -130 162 -138 162 -4 0 -16 -7 -26 -15z"/>
<path d="M2938 7615 c-10 -13 -18 -29 -18 -34 0 -6 22 -41 49 -78 28 -37 49
-69 47 -70 -2 -2 -40 11 -86 28 -81 31 -84 31 -97 13 -35 -47 -35 -48 40 -115
154 -140 146 -134 162 -113 8 11 15 21 15 24 0 3 -32 34 -71 68 -39 34 -66 62
-61 62 4 0 42 -11 83 -25 l74 -25 16 21 c16 21 15 25 -28 91 -25 38 -43 71
-41 73 2 2 37 -18 78 -45 69 -46 75 -48 92 -33 10 9 18 21 18 27 -1 11 -231
156 -247 156 -4 0 -16 -11 -25 -25z"/>
<path d="M7436 7455 c-49 -36 -101 -73 -117 -82 -27 -16 -28 -17 -11 -45 9
-15 19 -28 23 -28 6 0 224 152 238 165 5 6 -28 55 -37 55 -4 0 -47 -29 -96
-65z"/>
<path d="M7509 7312 c-99 -51 -115 -138 -39 -214 47 -48 101 -53 170 -18 101
51 113 149 28 225 -48 44 -86 45 -159 7z m141 -66 c19 -37 6 -68 -44 -99 -53
-33 -82 -32 -109 4 -24 33 -13 57 41 94 48 33 94 33 112 1z"/>
<path d="M2722 7270 c-43 -26 -76 -99 -68 -145 18 -93 142 -153 225 -110 31
15 71 86 71 124 0 50 -49 109 -112 136 -50 20 -76 19 -116 -5z m86 -65 c45
-19 82 -53 82 -75 0 -28 -30 -60 -56 -60 -27 0 -78 23 -106 48 -24 20 -23 53
2 80 25 26 30 27 78 7z"/>
<path d="M7788 7045 c-3 -3 -56 -27 -117 -54 -62 -27 -114 -51 -117 -54 -2 -2
0 -16 5 -30 l10 -26 81 35 c45 20 84 34 86 31 3 -2 -24 -41 -60 -87 l-65 -82
17 -34 c9 -19 21 -32 26 -30 6 3 68 29 138 57 l127 53 -15 28 c-8 15 -16 28
-18 28 -2 0 -38 -16 -81 -35 -43 -20 -80 -34 -82 -31 -3 2 24 41 60 87 63 80
65 83 52 113 -12 29 -34 44 -47 31z"/>
<path d="M2564 6963 c-9 -10 -27 -40 -39 -68 -43 -96 -46 -88 52 -125 49 -19
109 -44 135 -57 l48 -23 14 32 13 33 -44 19 c-61 26 -55 48 17 59 63 9 67 12
76 56 6 30 5 33 -12 27 -10 -3 -40 -10 -66 -15 -39 -7 -48 -6 -48 6 0 8 -13
28 -29 44 -34 34 -89 40 -117 12z m77 -74 c14 -14 18 -27 13 -42 -9 -31 -9
-31 -51 -14 -43 17 -52 37 -28 61 22 21 41 20 66 -5z"/>
<path d="M2442 6656 c-12 -42 -22 -82 -22 -90 0 -9 20 -19 53 -27 28 -6 91
-24 138 -39 l87 -27 10 34 10 33 -53 15 -53 16 11 40 c8 33 7 43 -4 50 -26 17
-38 9 -49 -32 -10 -38 -13 -40 -38 -34 -41 10 -43 17 -27 70 8 27 13 50 12 51
-1 1 -13 5 -27 9 -25 6 -27 3 -48 -69z"/>
<path d="M7841 6683 c-13 -11 -25 -38 -31 -71 -11 -63 -16 -72 -36 -72 -20 0
-36 46 -28 86 5 30 4 34 -14 34 -53 0 -65 -29 -41 -101 35 -104 143 -117 168
-22 6 21 13 50 16 66 4 18 12 27 25 27 23 0 35 -37 26 -75 -5 -20 -3 -25 13
-25 37 0 51 12 51 41 0 96 -88 162 -149 112z"/>
<path d="M2271 6366 c-87 -48 -50 -186 49 -186 51 0 100 49 100 99 0 75 -83
124 -149 87z"/>
<path d="M8029 6351 c-60 -60 -27 -156 57 -168 36 -5 46 -1 75 25 28 25 34 37
34 72 0 35 -6 47 -33 71 -44 40 -93 40 -133 0z"/>
<path d="M2004 5837 c-6 -16 67 -350 102 -467 57 -186 159 -334 332 -479 178
-149 262 -158 174 -18 -101 159 -159 311 -192 502 -28 164 -67 244 -163 339
-100 100 -236 166 -253 123z"/>
<path d="M8277 5812 c-172 -95 -255 -217 -292 -431 -34 -194 -103 -375 -195
-511 -73 -107 -36 -129 83 -50 98 65 222 182 285 268 63 85 102 164 137 272
35 111 114 461 108 477 -9 23 -57 13 -126 -25z"/>
<path d="M2472 5813 c-13 -24 2 -230 27 -385 32 -195 86 -347 174 -490 44 -72
63 -87 84 -66 10 11 11 31 2 103 -7 57 -9 135 -4 215 16 243 8 306 -51 420
-42 81 -82 130 -146 181 -55 43 -73 48 -86 22z"/>
<path d="M7846 5790 c-97 -80 -164 -188 -192 -307 -13 -56 -14 -95 -7 -218 4
-82 7 -159 7 -170 -1 -11 -4 -66 -8 -121 -6 -92 -5 -102 11 -109 13 -4 25 2
44 24 41 49 115 198 149 298 58 173 111 590 80 628 -19 22 -31 19 -84 -25z"/>
<path d="M3179 5743 c-18 -46 -6 -201 19 -249 32 -63 102 -117 210 -164 147
-65 189 -87 233 -127 109 -99 136 -289 61 -441 -30 -62 -115 -146 -175 -172
-106 -47 -374 -64 -543 -35 -278 48 -540 190 -716 387 -139 156 -201 213 -266
245 -90 45 -197 67 -290 59 -78 -6 -102 -17 -102 -44 0 -9 195 -211 433 -449
l432 -434 65 -19 c220 -64 2474 -661 2488 -658 24 5 29 42 31 210 4 480 -209
904 -599 1195 -87 65 -1228 723 -1254 723 -9 0 -21 -12 -27 -27z"/>
<path d="M7060 5701 c-63 -38 -324 -188 -580 -336 -256 -147 -494 -288 -530
-313 -36 -26 -105 -85 -154 -132 -217 -208 -362 -471 -427 -780 -18 -84 -22
-139 -23 -275 0 -191 5 -225 34 -225 11 0 543 140 1183 311 639 171 1205 322
1258 336 l97 26 441 441 c335 335 440 446 435 459 -9 24 -46 32 -144 32 -185
0 -313 -68 -457 -242 -205 -247 -491 -410 -797 -452 -175 -25 -428 -4 -526 42
-62 29 -141 110 -176 182 -27 55 -29 69 -29 170 0 130 17 177 87 248 43 43 68
57 269 150 150 69 203 136 215 273 7 84 -10 148 -41 151 -11 1 -72 -29 -135
-66z"/>
<path d="M2947 5593 c-11 -19 -77 -266 -91 -342 -30 -159 -14 -339 46 -526 19
-57 28 -71 51 -79 18 -7 31 -6 38 1 6 6 19 55 30 109 10 55 39 158 64 229 54
158 64 238 41 345 -16 79 -70 196 -111 243 -23 25 -58 36 -68 20z"/>
<path d="M7377 5553 c-74 -102 -107 -203 -107 -324 1 -89 11 -136 55 -255 19
-51 45 -145 58 -210 23 -112 26 -119 49 -122 39 -5 53 18 87 141 71 257 63
410 -39 745 -19 62 -25 72 -45 72 -16 0 -34 -14 -58 -47z"/>
<path d="M2710 4731 c0 -5 5 -13 10 -16 6 -3 10 -2 10 4 0 5 -4 13 -10 16 -5
3 -10 2 -10 -4z"/>
<path d="M4924 3226 c-58 -26 -68 -126 -17 -166 37 -29 113 -27 148 3 53 45
42 137 -20 162 -42 18 -71 18 -111 1z"/>
<path d="M4506 3206 c17 -13 19 -30 22 -168 l3 -153 -28 27 c-37 35 -73 48
-135 48 -59 0 -129 -29 -151 -64 -61 -92 -63 -330 -4 -418 59 -87 202 -103
287 -31 l30 25 0 -31 0 -31 121 0 c121 0 121 0 98 19 l-24 19 -3 386 -3 386
-116 0 c-103 0 -115 -2 -97 -14z m-7 -405 c24 -24 36 -95 28 -164 -8 -66 -43
-102 -91 -93 -41 8 -63 37 -72 92 -10 72 2 135 31 162 32 27 78 29 104 3z"/>
<path d="M2667 3142 c15 -27 14 -50 -16 -352 -18 -178 -37 -332 -42 -342 -5
-9 -17 -22 -27 -27 -12 -7 28 -10 136 -11 l152 0 -20 20 c-11 11 -20 28 -20
37 0 35 32 329 37 343 3 8 22 -52 42 -135 l36 -150 80 -3 80 -3 34 148 c19 81
37 153 40 158 6 10 39 -270 40 -337 1 -25 -6 -45 -19 -58 l-20 -20 145 0 146
0 -20 28 c-16 23 -24 78 -50 342 -17 173 -31 322 -31 331 0 8 9 25 20 37 l21
22 -148 0 -148 0 -39 -173 c-21 -94 -42 -178 -46 -186 -5 -9 -16 23 -29 80
-12 52 -31 136 -43 187 l-21 92 -143 0 -143 0 16 -28z"/>
<path d="M5267 3142 c15 -27 14 -50 -16 -352 -18 -178 -37 -332 -42 -342 -5
-9 -17 -22 -27 -27 -12 -7 28 -10 136 -11 l152 0 -20 20 c-11 11 -20 28 -20
37 0 35 32 329 37 343 3 8 22 -52 42 -135 l36 -150 80 -3 80 -3 34 148 c19 81
37 153 40 158 6 10 39 -270 40 -337 1 -25 -6 -45 -19 -58 l-20 -20 145 0 146
0 -20 28 c-16 23 -24 78 -50 342 -17 173 -31 322 -31 331 0 8 9 25 20 37 l21
22 -148 0 -148 0 -39 -173 c-21 -94 -42 -178 -46 -186 -5 -9 -16 23 -29 80
-12 52 -31 136 -43 187 l-21 92 -143 0 -143 0 16 -28z"/>
<path d="M6986 3128 c-22 -16 -64 -35 -93 -44 l-53 -15 0 -60 0 -59 -40 0 -40
0 0 -70 0 -70 40 0 40 0 0 -134 c0 -145 7 -176 48 -219 51 -53 206 -73 295
-38 26 10 27 12 27 96 l0 85 -20 -20 c-44 -44 -129 -50 -150 -10 -5 10 -10 68
-10 129 l0 111 30 0 c19 0 40 -9 55 -25 l25 -24 0 94 0 95 -55 0 -54 0 -3 103
-3 104 -39 -29z"/>
<path d="M3710 2951 c-113 -35 -170 -123 -170 -266 0 -133 55 -228 153 -262
70 -24 264 -25 320 0 l37 16 0 70 0 71 -41 -22 c-53 -28 -168 -30 -216 -5 -28
15 -53 44 -53 61 0 3 79 6 175 6 l175 0 0 63 c0 136 -57 233 -153 262 -53 16
-184 19 -227 6z m153 -133 c9 -7 21 -28 26 -45 l10 -33 -84 0 c-81 0 -83 1
-78 23 14 57 83 87 126 55z"/>
<path d="M6275 2953 c-11 -2 -35 -9 -52 -14 l-33 -11 0 -78 0 -79 36 24 c67
45 187 46 232 2 l24 -25 -43 -6 c-132 -20 -195 -44 -241 -93 -73 -77 -62 -213
22 -256 53 -28 147 -18 211 21 l49 31 0 -29 0 -30 121 0 c121 0 121 0 98 19
-23 19 -24 24 -30 223 -3 111 -7 204 -7 205 -60 82 -118 104 -266 102 -56 -1
-110 -3 -121 -6z m205 -324 c0 -41 -15 -66 -50 -84 -39 -20 -78 -10 -86 22
-14 53 29 89 109 92 24 1 27 -3 27 -30z"/>
<path d="M7440 2951 c-113 -35 -170 -123 -170 -266 0 -133 55 -228 153 -262
70 -24 264 -25 320 0 l37 16 0 70 0 71 -41 -22 c-53 -28 -168 -30 -216 -5 -28
15 -53 44 -53 61 0 3 79 6 175 6 l175 0 0 63 c0 136 -57 233 -153 262 -53 16
-184 19 -227 6z m153 -133 c9 -7 21 -28 26 -45 l10 -33 -84 0 c-81 0 -83 1
-78 23 14 57 83 87 126 55z"/>
<path d="M4866 2929 c17 -19 19 -41 23 -205 4 -213 -2 -267 -32 -294 -21 -20
-21 -20 123 -20 l143 0 -21 23 c-21 23 -22 30 -22 270 l0 247 -117 0 -116 0
19 -21z"/>
</g>
</svg>
